<svg xmlns="http://www.w3.org/2000/svg" xmlns:xlink="http://www.w3.org/1999/xlink" width="29.66" height="28.078" viewBox="0 0 29.66 28.078"><defs><style>.a{fill:url(#a);}</style><linearGradient id="a" x1="0.5" x2="0.5" y2="1" gradientUnits="objectBoundingBox"><stop offset="0" stop-color="#4266a9"/><stop offset="1" stop-color="#674f98"/></linearGradient></defs><path class="a" d="M27.189,27.142V24.719a2.3,2.3,0,0,0,1.483-2.257,2.184,2.184,0,0,0-1.977-2.34,2.184,2.184,0,0,0-1.977,2.34A2.3,2.3,0,0,0,26.2,24.719v2.423H23.728V12.635a.466.466,0,0,0-.273-.419l-3.681-1.742V7.955a.472.472,0,0,0-.358-.45L12.853,5.73V.468A.482.482,0,0,0,12.358,0H2.472a.482.482,0,0,0-.494.468V27.142H0v.936H29.66v-.936Zm-15.325,0h-8.9v-.936H7.415V25.27H2.966V23.4H7.415v-.936H2.966V20.591H7.415v-.936H2.966V17.783H7.415v-.936H2.966V14.975H7.415v-.936H2.966V12.167H7.415v-.936H2.966V9.359H7.415V8.423H2.966V6.552H7.415V5.616H2.966V3.744H7.415V2.808H2.966V.936h8.9Zm6.921,0H12.853v-.936h3.46V25.27h-3.46V23.4h3.46v-.936h-3.46V20.591h3.46v-.936h-3.46V17.783h3.46v-.936h-3.46V14.975h3.46v-.936h-3.46V12.167h3.46v-.936h-3.46V9.359h3.46V8.423h-3.46V6.7l5.932,1.6Zm3.955,0H19.774v-.936h1.483V25.27H19.774V23.4h1.483v-.936H19.774V20.591h1.483v-.936H19.774V17.783h1.483v-.936H19.774V14.975h1.483v-.936H19.774V11.52l2.966,1.4Zm3.46-3.477a1.589,1.589,0,0,1-.494-1.2c0-.761.453-1.4.989-1.4s.989.643.989,1.4a1.591,1.591,0,0,1-.494,1.2V22.93H26.2Z"/></svg>