<svg xmlns="http://www.w3.org/2000/svg" xmlns:xlink="http://www.w3.org/1999/xlink" width="23.75" height="23.75" viewBox="0 0 23.75 23.75"><defs><style>.a{fill:url(#a);}</style><linearGradient id="a" x1="0.5" x2="0.5" y2="1" gradientUnits="objectBoundingBox"><stop offset="0" stop-color="#4265a8"/><stop offset="1" stop-color="#664f98"/></linearGradient></defs><g transform="translate(0 0)"><g transform="translate(0 0)"><path class="a" d="M23.737,5.13a.717.717,0,0,0-.03-.147.748.748,0,0,0-.056-.138.549.549,0,0,0-.025-.062L20.657.33A.746.746,0,0,0,20.039,0H3.711a.744.744,0,0,0-.617.331L.125,4.784A.456.456,0,0,0,.1,4.846a.748.748,0,0,0-.056.138.717.717,0,0,0-.03.147A.4.4,0,0,0,0,5.2v17.07A1.486,1.486,0,0,0,1.484,23.75H22.266a1.486,1.486,0,0,0,1.484-1.484V5.2A.462.462,0,0,0,23.737,5.13Zm-4.1-3.646,1.98,2.969h-6.89l-.5-2.969Zm-8.623,0H12.73l.5,2.969h-2.7Zm-.628,4.453h2.969V8.62L12.11,8.2a.767.767,0,0,0-.469,0l-1.25.419ZM4.109,1.484H9.515l-.5,2.969H2.129ZM22.266,23.008v-.742H1.484V5.937H8.906V9.648a.736.736,0,0,0,.309.6.753.753,0,0,0,.668.1l1.992-.665,1.992.664a.754.754,0,0,0,.235.039.745.745,0,0,0,.742-.742V5.937h7.422V22.266h0Z" transform="translate(0 0)"/></g></g><g transform="translate(2.699 16.427)"><path class="a" d="M68.723,352H64.675a.675.675,0,0,0,0,1.349h4.048a.675.675,0,0,0,0-1.349Z" transform="translate(-64 -352)"/></g><g transform="translate(2.699 19.702)"><path class="a" d="M66.7,416H64.675a.675.675,0,1,0,0,1.349H66.7a.675.675,0,1,0,0-1.349Z" transform="translate(-64 -416)"/></g></svg>