<svg xmlns="http://www.w3.org/2000/svg" xmlns:xlink="http://www.w3.org/1999/xlink" width="23.861" height="27.084" viewBox="0 0 23.861 27.084"><defs><style>.a{fill:url(#a);}</style><linearGradient id="a" x1="0.5" x2="0.5" y2="1" gradientUnits="objectBoundingBox"><stop offset="0" stop-color="#4266a9"/><stop offset="1" stop-color="#674f98"/></linearGradient></defs><path class="a" d="M53.6,4.272a3.533,3.533,0,0,1-3.4-3.489L50.2,0H34.674l-.01.783a3.533,3.533,0,0,1-3.4,3.489L30.5,4.3v6.382a16.208,16.208,0,0,0,7.8,13.959l4.129,2.442,4.129-2.442a16.208,16.208,0,0,0,7.8-13.959V4.3Zm-.823,6.411a14.617,14.617,0,0,1-7.023,12.6l-3.323,1.965-3.323-1.965a14.617,14.617,0,0,1-7.023-12.6V5.769a5.119,5.119,0,0,0,4.09-4.184H48.691a5.119,5.119,0,0,0,4.09,4.184Z" transform="translate(-30.505 0)"/><path class="a" d="M197.085,171.818H195.5v2.557h-2.557v1.585H195.5v2.557h1.585v-2.557h2.557v-1.585h-2.557Z" transform="translate(-184.363 -162.741)"/><path class="a" d="M132.059,104a6.932,6.932,0,1,0,6.932,6.932A6.94,6.94,0,0,0,132.059,104Zm0,12.279a5.347,5.347,0,1,1,5.347-5.347A5.353,5.353,0,0,1,132.059,116.279Z" transform="translate(-120.128 -98.506)"/></svg>