<svg xmlns="http://www.w3.org/2000/svg" xmlns:xlink="http://www.w3.org/1999/xlink" width="20.958" height="27.965" viewBox="0 0 20.958 27.965"><defs><style>.a{fill:url(#a);}</style><linearGradient id="a" x1="0.5" x2="0.5" y2="1" gradientUnits="objectBoundingBox"><stop offset="0" stop-color="#4266a9"/><stop offset="1" stop-color="#674f98"/></linearGradient></defs><path class="a" d="M13.887,1.9H9.393a3.185,3.185,0,0,0-5.827,0H-.929A3.075,3.075,0,0,0-4,4.97V24.894A3.075,3.075,0,0,0-.929,27.965H13.887a3.075,3.075,0,0,0,3.071-3.071V4.97A3.075,3.075,0,0,0,13.887,1.9ZM4.071,3.3a.7.7,0,0,0,.683-.549,1.777,1.777,0,0,1,3.45,0,.7.7,0,0,0,.683.549h1.386v.613A1.675,1.675,0,0,1,8.6,5.583H4.358A1.675,1.675,0,0,1,2.685,3.911V3.3Zm11.489,21.6a1.675,1.675,0,0,1-1.673,1.673H-.929A1.675,1.675,0,0,1-2.6,24.894V4.97A1.675,1.675,0,0,1-.929,3.3H1.286v.613A3.075,3.075,0,0,0,4.358,6.982H8.6a3.075,3.075,0,0,0,3.071-3.071V3.3h2.215A1.675,1.675,0,0,1,15.56,4.97Zm0,0" transform="translate(4 0)"/><path class="a" d="M108.367,227.64l-4.59,4.481-2.331-2.275a.7.7,0,0,0-.986.991l.009.009,2.819,2.752a.7.7,0,0,0,.977,0l5.078-4.958a.7.7,0,0,0-.977-1Zm0,0" transform="translate(-94.428 -214.723)"/></svg>