<svg xmlns="http://www.w3.org/2000/svg" xmlns:xlink="http://www.w3.org/1999/xlink" width="20.753" height="26.811" viewBox="0 0 20.753 26.811"><defs><style>.a{fill:url(#a);}</style><linearGradient id="a" x1="0.5" x2="0.5" y2="1" gradientUnits="objectBoundingBox"><stop offset="0" stop-color="#4266a9"/><stop offset="1" stop-color="#674f98"/></linearGradient></defs><path class="a" d="M76.618,12.685,72.824,8.891V2.356A2.359,2.359,0,0,0,70.467,0H60.2a2.359,2.359,0,0,0-2.356,2.356v22.1A2.359,2.359,0,0,0,60.2,26.811H76.227a.785.785,0,0,0,.77-.631l1.464-7.287A6.843,6.843,0,0,0,76.618,12.685ZM60.2,1.571H70.467a.786.786,0,0,1,.785.785V12.488a2.461,2.461,0,0,0-3.474,3.487L70.787,19.1a6.671,6.671,0,0,0-2.1,2.734H59.418V2.356A.786.786,0,0,1,60.2,1.571Zm-.785,22.884V23.408h8.757a11.232,11.232,0,0,0-.251,1.833H60.2A.786.786,0,0,1,59.418,24.455Zm17.5-5.87L75.584,25.24H69.5A7.208,7.208,0,0,1,70.9,21.164,3.986,3.986,0,0,1,72.318,20a.778.778,0,0,0,.286-1.279L68.895,14.87a.89.89,0,0,1,1.257-1.261c1.661,1.7.853.883,3.759,3.789a.785.785,0,1,0,1.111-1.111l-2.2-2.2V11.113L75.507,13.8A5.276,5.276,0,0,1,76.921,18.585Z" transform="translate(-57.847 0)"/></svg>