<svg xmlns="http://www.w3.org/2000/svg" xmlns:xlink="http://www.w3.org/1999/xlink" width="28.71" height="20.877" viewBox="0 0 28.71 20.877"><defs><style>.a{stroke:#fff;stroke-width:0.11px;fill:url(#a);}</style><linearGradient id="a" x1="0.5" x2="0.5" y2="1" gradientUnits="objectBoundingBox"><stop offset="0" stop-color="#4265a8"/><stop offset="1" stop-color="#664f98"/></linearGradient></defs><g transform="translate(0.055 0.109)"><path class="a" d="M412.89,70.833a.838.838,0,0,0-1.185,1.185,12.63,12.63,0,0,1,0,17.853.838.838,0,0,0,1.185,1.185,14.305,14.305,0,0,0,0-20.222Z" transform="translate(-388.476 -70.588)"/><path class="a" d="M367.47,116.253a.838.838,0,1,0-1.185,1.185,9.04,9.04,0,0,1,0,12.779.838.838,0,1,0,1.185,1.185,10.716,10.716,0,0,0,0-15.148Z" transform="translate(-345.593 -113.47)"/><path class="a" d="M322.017,161.7a.838.838,0,1,0-1.185,1.185,5.448,5.448,0,0,1,0,7.7.838.838,0,0,0,1.185,1.185,7.124,7.124,0,0,0,0-10.071Z" transform="translate(-302.679 -156.383)"/><path class="a" d="M1.676,80.944a12.539,12.539,0,0,1,3.695-8.926.838.838,0,0,0-1.185-1.185,14.305,14.305,0,0,0,0,20.222.838.838,0,0,0,1.185-1.185A12.539,12.539,0,0,1,1.676,80.944Z" transform="translate(0 -70.588)"/><path class="a" d="M65.895,123.826a8.975,8.975,0,0,1,2.645-6.389.838.838,0,0,0-1.185-1.185,10.716,10.716,0,0,0,0,15.148.838.838,0,1,0,1.185-1.185A8.975,8.975,0,0,1,65.895,123.826Z" transform="translate(-60.632 -113.47)"/><path class="a" d="M131.758,161.7a.838.838,0,0,0-1.185,0,7.124,7.124,0,0,0,0,10.071.838.838,0,0,0,1.185-1.185,5.448,5.448,0,0,1,0-7.7A.838.838,0,0,0,131.758,161.7Z" transform="translate(-121.311 -156.384)"/><path class="a" d="M196.33,192.8a3.53,3.53,0,1,0,3.53,3.53A3.534,3.534,0,0,0,196.33,192.8Zm0,5.385a1.854,1.854,0,1,1,1.854-1.854A1.857,1.857,0,0,1,196.33,198.185Z" transform="translate(-182.03 -185.974)"/></g></svg>