<svg xmlns="http://www.w3.org/2000/svg" xmlns:xlink="http://www.w3.org/1999/xlink" width="36.574" height="13.637" viewBox="0 0 36.574 13.637"><defs><style>.a{stroke:#fff;}.a,.b{fill:url(#a);}</style><linearGradient id="a" x1="0.5" x2="0.5" y2="1" gradientUnits="objectBoundingBox"><stop offset="0" stop-color="#4266a9"/><stop offset="1" stop-color="#674f98"/></linearGradient></defs><g transform="translate(0.5 0.5)"><path class="a" d="M37.522,24.957h-33a1.285,1.285,0,0,0-1.285,1.285V36.309a1.285,1.285,0,0,0,1.285,1.285h33a1.285,1.285,0,0,0,1.285-1.285V26.242A1.285,1.285,0,0,0,37.522,24.957ZM36.237,35.077,5.8,35.024v-7.5H36.237Z" transform="translate(-3.233 -24.957)"/><ellipse class="b" cx="1.306" cy="1.306" rx="1.306" ry="1.306" transform="translate(4.27 5.02) rotate(-0.229)"/><ellipse class="b" cx="1.306" cy="1.306" rx="1.306" ry="1.306" transform="translate(8.736 5.022) rotate(-0.229)"/><ellipse class="b" cx="1.306" cy="1.306" rx="1.306" ry="1.306" transform="translate(13.203 5.023) rotate(-0.229)"/><path class="b" d="M429.6,243.385a1.306,1.306,0,1,0-1.306-1.306A1.306,1.306,0,0,0,429.6,243.385Z" transform="translate(-401.16 -235.76)"/></g></svg>