<svg xmlns="http://www.w3.org/2000/svg" xmlns:xlink="http://www.w3.org/1999/xlink" width="32.723" height="32.723" viewBox="0 0 32.723 32.723"><defs><style>.a{stroke:#fff;stroke-width:0.11px;fill:url(#a);}</style><linearGradient id="a" x1="0.5" x2="0.5" y2="1" gradientUnits="objectBoundingBox"><stop offset="0" stop-color="#4266a9"/><stop offset="1" stop-color="#674f98"/></linearGradient></defs><g transform="translate(0.055 0.055)"><g transform="translate(5.737 5.737)"><path class="a" d="M100.641,111.211a10.569,10.569,0,1,1,10.569-10.569A10.581,10.581,0,0,1,100.641,111.211Zm0-19.228a8.658,8.658,0,1,0,8.658,8.658A8.668,8.668,0,0,0,100.641,91.983Z" transform="translate(-90.072 -90.072)"/></g><g transform="translate(15.351)"><path class="a" d="M241,0h1.911V3.826H241Z" transform="translate(-241)"/></g><g transform="translate(7.326 1.707)"><path class="a" d="M0,0H1.911V3.826H0Z" transform="matrix(0.866, -0.5, 0.5, 0.866, 0, 0.955)"/></g><g transform="translate(1.707 7.326)"><path class="a" d="M0,0H1.911V3.826H0Z" transform="matrix(0.5, -0.866, 0.866, 0.5, 0, 1.655)"/></g><g transform="translate(0 15.351)"><path class="a" d="M0,241H3.826v1.911H0Z" transform="translate(0 -241)"/></g><g transform="translate(1.707 21.719)"><path class="a" d="M0,0H3.826V1.911H0Z" transform="matrix(0.866, -0.5, 0.5, 0.866, 0, 1.913)"/></g><g transform="translate(7.325 26.637)"><path class="a" d="M0,0H3.826V1.911H0Z" transform="matrix(0.5, -0.866, 0.866, 0.5, 0, 3.314)"/></g><g transform="translate(15.351 28.787)"><path class="a" d="M241,451.928h1.911v3.826H241Z" transform="translate(-241 -451.928)"/></g><g transform="translate(21.719 26.637)"><path class="a" d="M0,0H1.911V3.826H0Z" transform="matrix(0.866, -0.5, 0.5, 0.866, 0, 0.955)"/></g><g transform="translate(26.636 21.72)"><path class="a" d="M0,0H1.911V3.826H0Z" transform="matrix(0.5, -0.866, 0.866, 0.5, 0, 1.655)"/></g><g transform="translate(28.787 15.351)"><path class="a" d="M451.928,241h3.826v1.911h-3.826Z" transform="translate(-451.928 -241)"/></g><g transform="translate(26.636 7.326)"><path class="a" d="M0,0H3.826V1.911H0Z" transform="matrix(0.866, -0.5, 0.5, 0.866, 0, 1.913)"/></g><g transform="translate(21.719 1.707)"><path class="a" d="M0,0H3.826V1.911H0Z" transform="matrix(0.5, -0.866, 0.866, 0.5, 0, 3.314)"/></g><g transform="translate(15.35 19.522)"><path class="a" d="M240.989,306.478H242.9v1.911h-1.912Z" transform="translate(-240.989 -306.478)"/></g><g transform="translate(12.645 15.297)"><path class="a" d="M199.863,243.014l-1.351-1.351a5.174,5.174,0,0,1,7.324,0l-1.351,1.351a3.263,3.263,0,0,0-4.621,0Z" transform="translate(-198.512 -240.144)"/></g><g transform="translate(9.944 11.475)"><path class="a" d="M157.456,184.135l-1.351-1.351a8.99,8.99,0,0,1,12.726,0l-1.351,1.351a7.079,7.079,0,0,0-10.024,0Z" transform="translate(-156.105 -180.144)"/></g></g></svg>