<svg xmlns="http://www.w3.org/2000/svg" xmlns:xlink="http://www.w3.org/1999/xlink" width="26.799" height="22.427" viewBox="0 0 26.799 22.427"><defs><style>.a{stroke:#fff;stroke-width:0.2px;fill:url(#a);}</style><linearGradient id="a" x1="0.5" x2="0.5" y2="1" gradientUnits="objectBoundingBox"><stop offset="0" stop-color="#4266a9"/><stop offset="1" stop-color="#674f98"/></linearGradient></defs><g transform="translate(0.1 -30.508)"><g transform="translate(0 30.608)"><path class="a" d="M26.6,47.206a7.658,7.658,0,0,0-1.348-4.346,7.772,7.772,0,0,0-2.4-2.265,5.784,5.784,0,1,0-8.716-7.515,5.748,5.748,0,0,0-1.675,0,5.784,5.784,0,1,0-8.716,7.515,7.77,7.77,0,0,0-2.4,2.265A7.658,7.658,0,0,0,0,47.206v3.219H5.579v2.41H21.02v-2.41H26.6V47.206Zm-7.721-15.17a4.359,4.359,0,0,1,0,8.717l-.129,0,.009-.028a5.729,5.729,0,0,0,.186-.649c0-.016.008-.031.011-.047.013-.06.024-.12.035-.18.005-.029.011-.057.015-.086q.014-.081.025-.162c.005-.038.01-.076.014-.113s.011-.1.016-.144.008-.1.011-.148.006-.078.008-.117q.006-.126.006-.252c0-.006,0-.012,0-.019s0-.007,0-.01c0-.086,0-.172-.007-.257,0-.025,0-.049,0-.074q-.006-.109-.016-.216c0-.016,0-.033,0-.049a5.758,5.758,0,0,0-3.434-4.7A4.372,4.372,0,0,1,18.878,32.036Zm-7.087,2.679.042-.015.131-.044.1-.031.074-.021.133-.035a4.333,4.333,0,0,1,2.057,0l.132.034.075.021.1.03.133.045.04.014a4.372,4.372,0,0,1,2.8,3.411l.006.038c.008.053.015.107.02.161,0,.02,0,.04.006.06,0,.049.008.1.011.148,0,.021,0,.042,0,.064q0,.1,0,.192c0,.006,0,.011,0,.017s0,.005,0,.008c0,.062,0,.124,0,.185,0,.019,0,.039,0,.058q-.005.089-.013.177c0,.023-.005.045-.008.068q-.007.057-.014.114c0,.029-.008.059-.013.088q-.011.067-.024.133c-.008.039-.016.078-.025.117-.005.023-.011.047-.016.07q-.021.087-.045.173c-.007.023-.013.046-.019.068s-.021.065-.031.1l-.026.078c-.01.029-.02.059-.031.088q-.028.074-.058.147l-.028.065q-.026.061-.055.121l-.007.014-.02.042q-.032.065-.066.128l-.026.049,0,0c-.025.045-.05.089-.077.133l-.031.052q-.043.069-.088.137c-.019.028-.038.056-.058.083l-.05.07-.067.089-.047.059-.073.089-.047.054c-.026.029-.051.059-.078.088l-.048.05q-.064.068-.132.133l-.08.077-.057.051-.095.082-.049.041q-.058.047-.118.093l-.032.025a4.349,4.349,0,0,1-5.19,0l-.032-.024q-.06-.046-.118-.093l-.049-.04-.1-.082-.057-.051-.081-.077q-.068-.065-.132-.134l-.047-.05c-.026-.029-.052-.058-.078-.088l-.047-.054-.073-.089-.047-.059-.067-.089-.05-.07c-.019-.028-.039-.055-.058-.083q-.046-.068-.088-.138l-.031-.051c-.027-.045-.053-.089-.078-.135l-.027-.051c-.023-.042-.045-.085-.066-.128l-.022-.046,0-.007c-.02-.042-.039-.084-.057-.126l-.026-.061q-.031-.075-.059-.15c-.01-.027-.02-.055-.029-.082s-.019-.057-.029-.085-.02-.062-.03-.093q-.021-.07-.04-.14c-.009-.033-.017-.066-.025-.1s-.012-.052-.018-.078-.014-.064-.021-.1Q9.009,39.577,9,39.5c0-.027-.008-.055-.012-.082s-.011-.081-.016-.122c0-.02,0-.04-.007-.061-.006-.06-.01-.121-.014-.182,0-.017,0-.035,0-.052,0-.065-.005-.13-.005-.2s0-.14.005-.21c0-.019,0-.038,0-.057,0-.052.007-.1.012-.156,0-.018,0-.036.006-.054.006-.056.013-.112.021-.167l0-.032A4.372,4.372,0,0,1,11.791,34.716ZM3.362,36.395A4.357,4.357,0,0,1,10.979,33.5a5.758,5.758,0,0,0-3.435,4.7c0,.014,0,.028,0,.043q-.011.111-.017.224c0,.023,0,.046,0,.069,0,.089-.007.179-.007.269s0,.182.007.273c0,.037,0,.073.007.109,0,.052.007.1.012.157s.01.092.015.138.01.08.015.12.015.1.024.157c.005.031.011.062.017.093.011.058.022.116.034.174,0,.019.009.038.013.057a5.719,5.719,0,0,0,.18.629l.013.04-.129,0A4.364,4.364,0,0,1,3.362,36.395Zm3.414,9.1-.046.075c-.033.053-.065.106-.1.159l-.051.09c-.028.049-.056.1-.083.149l-.05.095q-.039.075-.076.15l-.046.095c-.025.053-.05.106-.074.16-.013.029-.026.058-.039.087-.028.064-.054.128-.08.193l-.023.057q-.05.126-.095.254L6,47.121c-.023.066-.045.131-.065.2-.009.03-.018.061-.027.091-.017.056-.033.112-.049.168-.009.034-.018.067-.027.1q-.021.081-.041.163-.012.052-.024.1c-.012.055-.024.111-.035.166-.007.033-.013.067-.02.1-.011.06-.021.121-.031.182,0,.029-.01.057-.014.086-.013.089-.025.179-.035.269v0q-.014.123-.024.246H1.428V47.206a6.279,6.279,0,0,1,3.61-5.686,5.761,5.761,0,0,0,3.522.6c.043.062.088.123.133.183l.047.06c.045.058.091.115.138.171l.059.068q.066.076.135.15l.073.077q.063.065.128.128l.048.048q-.093.056-.184.115l-.029.019q-.091.059-.181.121l-.062.043q-.08.056-.158.114l-.05.037q-.1.075-.2.154l-.042.035q-.077.063-.153.129l-.058.051q-.076.067-.15.135l-.039.036q-.091.085-.179.174l-.045.046q-.067.069-.133.139l-.052.056q-.074.081-.146.164l-.023.026q-.082.1-.161.194l-.044.055q-.059.076-.117.153l-.044.06c-.05.069-.1.138-.148.208S6.825,45.423,6.776,45.5Zm.231,5.908V49.617q0-.119,0-.237c0-.026,0-.052,0-.077,0-.053,0-.105.009-.158,0-.032.006-.063.009-.095s.008-.092.013-.138.009-.067.013-.1.011-.087.017-.131.011-.069.017-.1.013-.084.021-.125.014-.07.022-.105.016-.081.025-.121.017-.07.026-.106.019-.079.029-.118.02-.071.03-.106.021-.077.033-.115.023-.071.034-.106.024-.075.037-.112.025-.07.038-.1.027-.074.041-.11.028-.069.042-.1.029-.072.044-.108.03-.068.046-.1.031-.07.048-.1.033-.067.05-.1.034-.069.051-.1.035-.066.053-.1.036-.067.055-.1l.057-.1c.019-.033.038-.065.058-.1l.061-.1.062-.1.064-.094.065-.093.068-.092.068-.09.071-.089.071-.088.074-.087.075-.086.077-.084.078-.083.08-.081.081-.08.083-.078.085-.077.086-.075.088-.075.089-.072.091-.072.091-.069.094-.069.094-.066.1-.066.1-.062.1-.063.1-.059.1-.059.1-.055.107-.056.1-.052.082-.039a5.768,5.768,0,0,0,5.366,0l.081.039.1.052.106.055.1.056.1.059.1.06.1.062.1.063.1.065.095.066.093.068.092.07.09.071.089.073.087.074.087.076.084.077.084.079.081.079.081.082.078.082.078.085.074.085.075.087.071.087.071.09.068.09.068.092.065.092.064.094.061.095.061.1.058.1c.019.033.039.065.057.1s.036.066.055.1.036.066.053.1.034.068.051.1.034.067.05.1.032.07.048.1.031.068.046.1.029.071.044.107.029.069.042.1.027.073.04.109.026.07.038.1.025.075.037.112.023.07.034.105.022.077.033.115.02.07.03.106.02.078.029.118.018.07.026.106.017.081.025.121.015.07.022.105.014.083.021.124.012.069.017.1.012.086.017.13.009.067.013.1.009.092.013.138.006.063.009.095c0,.052.006.105.009.158,0,.026,0,.051,0,.077q0,.118,0,.237v1.791ZM21,49q-.021-.261-.06-.519c0-.027-.009-.054-.013-.081-.01-.062-.02-.124-.032-.186-.006-.033-.013-.065-.019-.1q-.017-.085-.035-.169-.011-.051-.023-.1-.02-.083-.041-.165c-.009-.033-.017-.066-.026-.1-.016-.057-.032-.114-.049-.17-.009-.03-.018-.06-.027-.09-.021-.067-.043-.134-.066-.2l-.019-.056q-.045-.128-.095-.255l-.022-.054c-.026-.065-.053-.131-.082-.2l-.039-.086c-.024-.054-.049-.108-.074-.161l-.046-.093q-.038-.076-.077-.151l-.05-.094q-.041-.075-.083-.15l-.051-.089c-.031-.054-.064-.107-.1-.16l-.046-.074q-.073-.116-.151-.229c-.048-.07-.1-.14-.148-.208L19.48,45q-.058-.077-.118-.153l-.043-.055q-.079-.1-.161-.195l-.022-.025q-.072-.084-.147-.165l-.052-.056q-.066-.071-.134-.14l-.045-.046q-.088-.089-.179-.175l-.038-.035q-.074-.069-.15-.136l-.058-.051q-.076-.065-.153-.129l-.042-.035q-.1-.078-.2-.154l-.05-.037q-.078-.058-.157-.114l-.062-.044q-.089-.061-.179-.12l-.031-.021q-.091-.059-.184-.115l.047-.047q.066-.064.131-.131l.071-.075c.047-.05.092-.1.137-.153l.057-.066c.048-.057.094-.115.14-.173L17.9,42.3c.046-.06.09-.122.134-.184a5.763,5.763,0,0,0,3.522-.6,6.279,6.279,0,0,1,3.61,5.686V49Z" transform="translate(0 -30.608)"/></g></g></svg>